<svg width="48" height="48" viewBox="0 0 48 48" fill="none" xmlns="http://www.w3.org/2000/svg">
<path fill-rule="evenodd" clip-rule="evenodd" d="M38.8722 48H9.12781C4.09187 48 0 43.8968 0 38.8645V9.13552C0 4.10323 4.09187 0 9.12781 0H38.8722C43.9081 0 48 4.10323 48 9.13552V38.8645C48 43.8968 43.9081 48 38.8722 48Z" fill="#424242"/>
<path fill-rule="evenodd" clip-rule="evenodd" d="M22.5836 28.7226C21.0883 27.2517 20.1443 27.7162 19.672 28.1807C19.3575 28.4904 19.2002 28.8 19.2002 29.1872C19.2002 29.9613 19.9081 30.7356 20.2232 31.0452L24.1572 34.9936C24.7868 35.613 25.8098 35.613 26.4393 34.9936C26.7538 34.6839 26.9116 34.2968 26.9116 33.8323C26.9116 33.5226 26.8327 33.213 26.5966 32.9033L22.5836 28.7226Z" fill="white"/>
<path fill-rule="evenodd" clip-rule="evenodd" d="M34.3871 38.8645C34.7805 39.2516 35.1739 39.4065 35.6462 39.4065C36.118 39.4065 36.5903 39.1742 37.0626 38.7871C37.8494 37.9355 37.9278 37.0065 37.141 36.2322L28.092 27.0968L27.8559 26.8645C27.6197 26.6322 27.6197 26.2452 27.8559 26.0129C28.092 25.7807 28.4855 25.7807 28.7216 26.0129L34.2298 31.5871L36.2758 33.6774C36.5114 33.9097 37.0626 34.4516 37.6921 34.6839C38.4001 34.9935 39.0296 34.8387 39.5803 34.2194C39.9737 33.8322 40.9967 32.7484 39.1085 30.8129L28.6427 20.2839C27.3052 20.6709 26.3606 20.5935 26.2823 20.5935C25.9672 20.5161 25.7311 20.2065 25.7311 19.8968C25.81 19.5871 26.0461 19.2774 26.4395 19.3548C26.5184 19.3548 27.3052 19.4322 28.4855 19.0452C28.5643 18.9678 28.6427 18.9677 28.8 18.9677C30.0591 18.5032 31.5543 17.4968 32.9707 15.329C34.2298 13.3161 34.0721 12 33.8364 11.3807C33.6003 10.8387 33.2852 10.3742 32.8135 10.2194C32.3412 10.0645 31.9478 10.4516 31.0037 11.6129C30.6097 12.0774 30.138 12.6194 29.5868 13.1613C26.9118 15.8709 21.1674 13.471 19.5938 12.7742L19.2788 13.0839C19.0426 13.3161 18.6492 13.3161 18.4131 13.0839C18.1774 12.8516 18.1774 12.4645 18.4131 12.2322L19.2788 11.3807C19.6722 10.9935 19.7511 10.0645 19.2004 9.52259C18.8853 9.21289 18.5708 9.21289 18.4131 9.21289C18.0985 9.21289 17.7051 9.36772 17.469 9.6L6.53138 19.9742C6.21634 20.2839 6.05908 20.671 6.05908 21.0581C6.05908 21.4452 6.21634 21.7548 6.45249 21.9871C7.31819 22.8387 8.57731 21.6774 8.57731 21.6C8.81346 21.3677 9.20687 21.3677 9.44302 21.6C9.67865 21.8322 9.67865 22.2194 9.44302 22.4516C8.18391 23.6903 9.12798 26.2452 10.6232 28.0258C11.7246 29.4194 13.141 30.7355 14.479 31.8194C14.479 31.1226 14.7935 30.4258 15.2658 29.8839C16.0526 29.1097 16.9967 28.9548 17.9413 29.2645C17.9413 29.1871 17.9413 29.1097 17.9413 29.0322C17.9413 28.3355 18.1774 27.7161 18.7281 27.1742C19.9872 25.9355 21.7181 26.1677 23.3706 27.7161L24.787 29.1097L34.3871 38.8645Z" fill="white"/>
<path fill-rule="evenodd" clip-rule="evenodd" d="M19.0431 36.2324C20.6167 37.7808 21.4825 37.3162 22.0331 36.7743C22.3476 36.4646 22.5054 36.0775 22.5054 35.6905C22.5054 35.3033 22.3476 34.9937 22.0331 34.684L18.5708 31.2001C18.0202 30.6582 16.9972 29.9614 16.1315 30.8905C15.817 31.2001 15.6592 31.5872 15.6592 31.9743C15.6592 32.4388 15.9742 33.2905 17.0755 34.2969L19.0431 36.2324Z" fill="white"/>
</svg>
