<svg width="124" height="125" viewBox="0 0 124 125" fill="none" xmlns="http://www.w3.org/2000/svg">
<g filter="url(#filter0_d)">
<path fill-rule="evenodd" clip-rule="evenodd" d="M90.8389 104.332H33.5289C23.8259 104.332 15.9419 96.2965 15.9419 86.4417V28.2224C15.9419 18.3675 23.8259 10.332 33.5289 10.332H90.8389C100.542 10.332 108.426 18.3675 108.426 28.2224V86.4417C108.426 96.2965 100.542 104.332 90.8389 104.332Z" fill="#424242"/>
</g>
<path fill-rule="evenodd" clip-rule="evenodd" d="M59.455 66.5805C56.574 63.6999 54.755 64.6096 53.845 65.5192C53.239 66.1257 52.936 66.7321 52.936 67.4902C52.936 69.0063 54.3 70.5225 54.907 71.1289L62.487 78.8612C63.7 80.0741 65.671 80.0741 66.884 78.8612C67.49 78.2547 67.794 77.4966 67.794 76.587C67.794 75.9805 67.642 75.3741 67.187 74.7676L59.455 66.5805Z" fill="white"/>
<path fill-rule="evenodd" clip-rule="evenodd" d="M82.197 86.4418C82.955 87.1998 83.713 87.5031 84.623 87.5031C85.532 87.5031 86.442 87.0482 87.352 86.2901C88.868 84.6224 89.019 82.8031 87.503 81.2869L70.068 63.3966L69.613 62.9418C69.158 62.4869 69.158 61.7289 69.613 61.274C70.068 60.8192 70.826 60.8192 71.281 61.274L81.894 72.1902L85.836 76.2837C86.29 76.7385 87.352 77.7998 88.565 78.2547C89.929 78.8611 91.142 78.5579 92.203 77.345C92.961 76.5869 94.932 74.4643 91.294 70.674L71.129 50.0547C68.552 50.8127 66.732 50.6611 66.581 50.6611C65.974 50.5095 65.519 49.9031 65.519 49.2966C65.671 48.6902 66.126 48.0837 66.884 48.2353C67.036 48.2353 68.552 48.3869 70.826 47.6289C70.978 47.4773 71.129 47.4772 71.432 47.4772C73.858 46.5676 76.739 44.5966 79.468 40.3514C81.894 36.4095 81.59 33.8321 81.136 32.6192C80.681 31.5579 80.074 30.6482 79.165 30.345C78.255 30.0418 77.497 30.7998 75.678 33.074C74.919 33.9837 74.01 35.045 72.948 36.1063C67.794 41.4127 56.726 36.7127 53.694 35.3482L53.087 35.9547C52.632 36.4095 51.874 36.4095 51.419 35.9547C50.965 35.4998 50.965 34.7418 51.419 34.2869L53.087 32.6192C53.845 31.8611 53.997 30.0418 52.936 28.9805C52.329 28.374 51.723 28.374 51.419 28.374C50.813 28.374 50.055 28.6772 49.6 29.1321L28.526 49.4482C27.919 50.0547 27.616 50.8127 27.616 51.5708C27.616 52.3289 27.919 52.9353 28.374 53.3902C30.042 55.0579 32.468 52.7837 32.468 52.6321C32.923 52.1772 33.681 52.1772 34.136 52.6321C34.59 53.0869 34.59 53.845 34.136 54.2998C31.71 56.7256 33.529 61.7289 36.41 65.216C38.532 67.945 41.261 70.5224 43.839 72.645C43.839 71.2805 44.445 69.916 45.355 68.8547C46.871 67.3385 48.69 67.0353 50.51 67.6418C50.51 67.4902 50.51 67.3385 50.51 67.1869C50.51 65.8224 50.965 64.6095 52.026 63.5482C54.452 61.1224 57.787 61.5772 60.971 64.6095L63.7 67.3385L82.197 86.4418Z" fill="white"/>
<path fill-rule="evenodd" clip-rule="evenodd" d="M52.633 81.2868C55.665 84.319 57.333 83.4093 58.394 82.3481C59 81.7416 59.304 80.9835 59.304 80.2255C59.304 79.4674 59 78.861 58.394 78.2545L51.723 71.4319C50.662 70.3706 48.691 69.0061 47.023 70.8255C46.417 71.4319 46.113 72.19 46.113 72.9481C46.113 73.8577 46.72 75.5255 48.842 77.4964L52.633 81.2868Z" fill="white"/>
<defs>
<filter id="filter0_d" x="0.941895" y="0.332031" width="122.484" height="124" filterUnits="userSpaceOnUse" color-interpolation-filters="sRGB">
<feFlood flood-opacity="0" result="BackgroundImageFix"/>
<feColorMatrix in="SourceAlpha" type="matrix" values="0 0 0 0 0 0 0 0 0 0 0 0 0 0 0 0 0 0 127 0" result="hardAlpha"/>
<feOffset dy="5"/>
<feGaussianBlur stdDeviation="7.5"/>
<feColorMatrix type="matrix" values="0 0 0 0 0 0 0 0 0 0 0 0 0 0 0 0 0 0 0.4 0"/>
<feBlend mode="normal" in2="BackgroundImageFix" result="effect1_dropShadow"/>
<feBlend mode="normal" in="SourceGraphic" in2="effect1_dropShadow" result="shape"/>
</filter>
</defs>
</svg>
